<svg xmlns="http://www.w3.org/2000/svg" xmlns:xlink="http://www.w3.org/1999/xlink" viewBox="0,0,256,256" width="40px" height="40px" fill-rule="nonzero"><g fill="#0066ff" fill-rule="nonzero" stroke="none" stroke-width="1" stroke-linecap="butt" stroke-linejoin="miter" stroke-miterlimit="10" stroke-dasharray="" stroke-dashoffset="0" font-family="none" font-weight="none" font-size="none" text-anchor="none" style="mix-blend-mode: normal"><g transform="scale(5.12,5.12)"><path d="M14.40234,4c-5.736,0 -10.40234,4.66634 -10.40234,10.40234v21.19531c0,5.736 4.66634,10.40234 10.40234,10.40234h21.19531c5.736,0 10.40234,-4.66634 10.40234,-10.40234v-21.19531c0,-5.736 -4.6673,-10.40234 -10.4043,-10.40234zM16.52734,13h16.94531c1.945,0 3.52734,1.58234 3.52734,3.52734v16.94531c0,1.945 -1.5833,3.52734 -3.5293,3.52734h-16.94336c-1.945,0 -3.52734,-1.58234 -3.52734,-3.52734v-16.94531c0,-1.945 1.58234,-3.52734 3.52734,-3.52734zM19,19v12h12v-12z"></path></g></g></svg>